<?xml version="1.0" encoding="UTF-8" standalone="no"?>
<!-- Created with Inkscape (http://www.inkscape.org/) -->
<svg
   xmlns:dc="http://purl.org/dc/elements/1.1/"
   xmlns:cc="http://creativecommons.org/ns#"
   xmlns:rdf="http://www.w3.org/1999/02/22-rdf-syntax-ns#"
   xmlns:svg="http://www.w3.org/2000/svg"
   xmlns="http://www.w3.org/2000/svg"
   xmlns:sodipodi="http://sodipodi.sourceforge.net/DTD/sodipodi-0.dtd"
   xmlns:inkscape="http://www.inkscape.org/namespaces/inkscape"
   id="svg1363"
   sodipodi:version="0.32"
   inkscape:version="0.46"
   width="630"
   height="705"
   sodipodi:docbase="/home/odder/Desktop"
   sodipodi:docname="Wolf_ogon_w_dole.svg"
   version="1.0"
   inkscape:output_extension="org.inkscape.output.svg.inkscape">
  <metadata
     id="metadata1368">
    <rdf:RDF>
      <cc:Work
         rdf:about="">
        <dc:format>image/svg+xml</dc:format>
        <dc:type
           rdf:resource="http://purl.org/dc/dcmitype/StillImage" />
        <cc:license
           rdf:resource="http://web.resource.org/cc/PublicDomain" />
        <dc:description>Illustration to &quot;Burial Mound&quot; poem by Yanka Kupala. Engraving by Arlen Kashkurevich.</dc:description>
        <dc:title>Wolf</dc:title>
        <dc:creator>
          <cc:Agent>
            <dc:title>Staffan Vilcans (trace)</dc:title>
          </cc:Agent>
        </dc:creator>
      </cc:Work>
      <cc:License
         rdf:about="http://web.resource.org/cc/PublicDomain">
        <cc:permits
           rdf:resource="http://web.resource.org/cc/Reproduction" />
        <cc:permits
           rdf:resource="http://web.resource.org/cc/Distribution" />
        <cc:permits
           rdf:resource="http://web.resource.org/cc/DerivativeWorks" />
      </cc:License>
    </rdf:RDF>
  </metadata>
  <defs
     id="defs1366">
    <inkscape:perspective
       sodipodi:type="inkscape:persp3d"
       inkscape:vp_x="0 : 352.5 : 1"
       inkscape:vp_y="0 : 1000 : 0"
       inkscape:vp_z="600 : 352.5 : 1"
       inkscape:persp3d-origin="300 : 235 : 1"
       id="perspective7" />
  </defs>
  <sodipodi:namedview
     inkscape:window-height="753"
     inkscape:window-width="1280"
     inkscape:pageshadow="2"
     inkscape:pageopacity="0.0"
     borderopacity="1.0"
     bordercolor="#666666"
     pagecolor="#ffffff"
     id="base"
     inkscape:zoom="0.5"
     inkscape:cx="210.80764"
     inkscape:cy="195.98901"
     inkscape:window-x="0"
     inkscape:window-y="20"
     inkscape:current-layer="svg1363"
     showgrid="false" />
  <path
     style="fill:#000000"
     d="M 96.27658,330.50067 C 107.80468,323.95418 116.78796,330.21069 134.6166,320.02294 C 145.36753,313.87958 163.84726,311.43783 220.60769,291.33091 C 239.89997,285.96445 257.97778,274.78875 278.08478,272.65904 C 293.84196,270.89459 308.98871,265.77953 324.43255,262.34571 C 333.99262,260.35238 356.56274,251.43238 363.70224,246.82584 C 383.19961,241.03491 399.50187,231.96487 417.5957,223.70591 C 427.36363,221.02987 485.58471,166.44821 482.21295,163.12794 C 481.11927,162.05096 474.89301,163.47368 467.1616,166.56726 C 452.82114,172.30533 449.32867,172.88855 447.42941,169.86241 C 446.06584,167.68982 456.20844,146.53435 459.14291,145.43037 C 462.78233,140.69832 465.5866,134.52722 469.03972,129.28212 C 480.39275,111.53028 487.8734,91.728942 496.0314,72.398106 C 500.70148,59.837963 516.22248,57.017858 522.70437,46.045476 C 523.42988,43.794516 528.95236,36.678286 534.97657,30.231649 C 541.00076,23.785017 545.25664,14.866886 549.32295,10.413601 C 556.2901,2.7834462 557.12432,2.4341762 563.79596,4.3542332 L 570.87565,6.3917502 C 571.63343,11.955845 569.80529,30.840798 577.43518,31.88853 C 579.59101,31.88853 582.48353,30.777123 583.86297,29.418738 C 588.82114,24.536287 590.42459,30.393132 588.20317,45.272046 C 587.02056,53.192966 585.10183,62.741836 583.93927,66.491806 C 582.07408,72.508176 582.44413,88.306546 585.3704,127.59297 C 587.41176,154.99918 589.32889,168.09024 592.90559,179.04698 C 595.12274,185.83891 597.85136,194.24021 598.96919,197.71655 C 601.68366,206.15828 601.56106,224.77219 598.77984,226.46481 C 594.37149,227.90623 591.97426,221.64441 587.88015,222.64882 C 587.33236,223.57155 587.7569,232.66206 588.82358,242.84995 C 593.78917,290.27636 593.53901,301.50752 587.51715,301.50752 C 581.93824,301.50752 581.72698,310.44111 586.60545,340.05923 C 587.88667,360.91258 579.73523,345.76822 573.26045,346.52523 C 571.50743,348.25148 570.90582,356.42228 571.28948,373.29407 L 571.8417,397.57822 C 565.0233,405.90248 558.60425,414.5777 551.39017,422.57145 C 546.93407,427.61574 548.0927,435.17606 547.73461,441.46242 C 547.38452,447.68835 545.6322,460.19168 543.84054,469.24758 C 539.21004,492.6524 536.52962,506.53193 533.90367,520.70158 C 532.64498,527.49352 528.76509,544.6277 525.28168,558.77755 L 518.94824,584.50455 L 522.46673,606.05518 C 524.40189,617.90802 526.36111,627.97595 526.82052,628.42837 C 535.51737,630.97076 544.4671,632.07782 552.40633,636.79934 C 562.31579,642.48351 573.48296,644.2836 582.6106,651.46931 C 590.76959,658.37893 600.76943,662.2717 609.7766,667.98331 C 617.4652,673.00246 637.53036,705 628.1365,705 L 37.039214,705 C 21.876318,705 34.49501,672.87319 36.344767,664.30455 C 37.511013,658.90215 39.551898,639.20016 40.880068,620.52235 C 42.208238,601.84456 44.195002,584.70339 45.295094,582.43088 C 46.395186,580.15838 50.550249,576.10276 54.528563,573.4184 C 62.663429,567.92942 56.650459,560.35978 64.354854,555.57449 C 74.24599,549.43098 88.411686,541.7133 89.495438,541.61731 C 90.57919,541.52132 92.886256,517.20729 93.547616,516.15352 C 94.20898,515.09975 95.6047,507.67474 95.63635,506.4485 C 95.66799,505.22226 96.7829,495.44694 97.61072,490.78586 C 97.74068,485.078 93.466361,480.78317 93.466361,479.691 C 92.336289,472.62965 86.715113,471.76045 87.293168,464.45854 C 89.941308,455.3044 80.31952,426.11071 77.185763,421.22331 C 78.318224,415.90221 112.29108,468.59232 92.992181,504.99323 C 88.029449,514.35376 89.755486,517.55236 84.54466,526.81099 C 62.477572,566.01994 23.473777,617.89913 16.820243,566.50231 C 15.350054,555.14549 22.327419,521.21877 23.002307,498.43957 C 23.79835,471.57105 14.937172,428.69969 38.571298,389.49941 C 65.98494,344.03031 71.190365,343.10018 96.27658,330.50067 z M 97.52624,688.29068 C 112.58459,680.11565 113.56667,679.88435 137.00461,678.99278 C 159.15862,678.15004 191.39705,671.97328 204.93211,665.9781 C 215.86894,661.13381 227.45906,657.56924 232.27347,657.56924 C 237.38349,657.56924 237.53107,657.91963 236.17401,666.83097 C 234.89258,675.24561 235.15516,676.09268 239.045,676.09268 C 241.39976,676.09268 245.9741,675.08894 249.21017,673.86213 C 252.44625,672.63533 260.56353,670.75299 267.24858,669.67919 C 279.8909,667.64847 287.49013,664.25791 287.49013,660.64804 C 287.49013,659.49 281.34608,649.29336 273.83669,637.98881 C 259.69634,616.70213 240.55228,597.03085 225.51756,588.33901 C 216.33231,583.02885 213.96458,578.09725 215.77146,568.03927 C 216.38151,564.64331 217.31972,557.69702 217.85637,552.60307 C 218.89511,542.74273 219.44642,543.81857 201.07841,519.86054 C 193.23742,509.63325 187.16646,506.36564 187.16646,512.3726 C 179.1408,525.30971 163.94315,532.09117 155.38472,544.65483 C 132.68594,571.46398 114.93675,583.42439 95.6689,599.94076 C 81.273074,609.14112 69.790181,623.5191 66.289608,640.17248 C 64.816878,648.04272 63.042438,656.79743 62.346428,659.6274 C 60.651778,666.51771 61.185888,668.75769 68.108018,683.79099 C 72.398618,693.10921 75.153078,696.67429 78.061948,696.67429 C 80.273928,696.67429 89.032858,692.90166 97.52624,688.29068 z M 379.15944,653.53597 C 389.32406,650.62759 396.51157,642.08809 406.57788,639.03656 C 413.86336,637.60161 414.6975,626.44122 408.56797,612.4103 C 403.8966,601.71725 404.04065,587.99211 408.88455,582.24469 C 410.02676,580.88944 414.84332,567.87709 419.58802,553.32832 C 427.41415,529.33092 428.29959,524.4265 429.12895,500.48082 C 430.1705,470.40902 428.70135,456.75434 424.243,455.06965 C 422.54807,454.42918 416.42953,454.98072 410.64621,456.29529 C 398.64195,459.02387 396.34554,458.11758 374.2283,441.92262 C 355.78168,428.41541 342.03745,423.08389 322.175,421.73065 C 309.11595,420.84092 303.58679,419.46361 297.94051,415.69382 C 292.58185,412.11606 286.35089,410.43433 274.64444,409.40628 C 260.15877,408.13415 258.46087,408.37592 256.49647,411.99041 C 253.64782,417.23186 254.66723,423.96085 260.02589,435.28793 C 262.43578,440.38188 264.42814,447.23881 264.45339,450.52555 C 264.50084,456.70219 273.25959,477.08882 278.30124,482.75738 C 282.9801,493.58117 276.27575,509.58677 272.91206,520.54502 C 271.08027,527.75913 271.32177,534.51778 268.53809,541.54857 C 261.472,557.89553 263.29039,566.23838 276.10628,576.27191 C 285.41596,581.99199 290.69789,589.55074 295.98207,598.91167 C 299.68508,605.70361 304.98301,615.42841 307.75524,620.52235 C 310.63099,626.57124 313.02491,629.87088 319.3638,630.57807 C 320.80072,630.73178 326.00347,634.6498 330.92546,639.28479 C 338.74242,646.64599 340.73765,647.55263 346.69746,646.45163 C 352.00294,645.47152 355.10003,646.33878 360.62279,650.35113 C 368.6106,656.15436 369.40485,656.29081 379.15944,653.53597 z M 484.47911,631.1226 C 487.48785,628.1598 482.66851,613.54326 476.1787,605.94834 C 470.60211,599.42214 470.23516,592.50392 474.71377,578.33008 C 481.71256,556.18032 487.56506,531.79492 492.46306,504.37476 C 494.40359,495.9223 492.04656,484.67344 483.25938,481.13959 C 481.97965,481.55964 479.57191,486.46517 477.90881,492.04074 C 475.05194,501.61857 463.31146,535.90676 454.353,560.83571 C 452.11565,567.06165 448.38194,579.9573 446.0559,589.49269 C 441.85795,606.70169 441.92874,611.84295 446.60675,629.49861 C 448.63036,637.13612 448.97151,637.3847 455.36196,635.87852 C 464.51297,632.65611 475.94776,636.17528 484.47911,631.1226 z"
     id="path1372"
     sodipodi:nodetypes="cscccccsssccccsscccssssssccssccccccsscccccccsssssssccsccccsssssccsssssssssssssccccssscccssssssssssssscccccccsssccssccsssscc" />
</svg>
