<?xml version="1.0" ?><!DOCTYPE svg  PUBLIC '-//W3C//DTD SVG 1.1//EN'  'http://www.w3.org/Graphics/SVG/1.1/DTD/svg11.dtd'><svg enable-background="new 0 0 100 100" height="75px" id="Calque_2" version="1.1" viewBox="0 0 100 100" width="75px" xml:space="preserve" xmlns="http://www.w3.org/2000/svg" xmlns:xlink="http://www.w3.org/1999/xlink"><g><path d="M16.64,33.53c0.63,0,1.25,0.16,1.81,0.46c0.88,0.49,1.52,1.28,1.8,2.25c0.28,0.97,0.18,1.98-0.31,2.86l-1.23,2.26   l6.43,3.52l3.52-6.43l-2.26-1.23c-1.82-1-2.49-3.29-1.5-5.11c0.67-1.21,1.93-1.96,3.31-1.96c0.63,0,1.25,0.16,1.81,0.46l2.25,1.24   l3.52-6.43l-7.67-4.2l1.92-3.49c0.62-1.14,0.2-2.57-0.94-3.2c-0.34-0.19-0.73-0.29-1.12-0.29c-0.87,0-1.66,0.47-2.07,1.23L24,18.96   l-7.67-4.2l-4.2,7.67l-3.49-1.91c-0.35-0.19-0.74-0.29-1.13-0.29c-0.86,0-1.65,0.47-2.07,1.22c-0.62,1.14-0.2,2.57,0.94,3.2   l3.49,1.91l-4.2,7.67l6.43,3.52l1.24-2.26C14,34.28,15.27,33.53,16.64,33.53z"/><path d="M34.97,68.32c0-2.07,1.69-3.761,3.77-3.761h2.57V57.23h-8.74v-3.98c0-1.3-1.06-2.36-2.36-2.36   c-1.29,0-2.35,1.061-2.35,2.36v3.98h-8.74v8.739h-3.99c-1.29,0-2.35,1.061-2.35,2.351c0,1.3,1.06,2.359,2.35,2.359h3.99v8.74h7.33   v-2.57c0-2.08,1.69-3.77,3.76-3.77c2.08,0,3.77,1.689,3.77,3.77v2.57h7.33v-7.33h-2.57C36.66,72.09,34.97,70.4,34.97,68.32z"/><path d="M71.25,68.32c0-1.29-1.06-2.351-2.35-2.351h-3.99V57.23h-8.74v-3.98c0-1.3-1.05-2.35-2.35-2.36   c-1.29,0.011-2.34,1.061-2.34,2.36v3.98h-8.74v8.739h-3.99c-1.3,0-2.35,1.061-2.35,2.351c0,1.3,1.05,2.359,2.35,2.359h3.99v8.74   h8.74v3.98c0,1.3,1.05,2.359,2.35,2.359s2.35-1.06,2.35-2.359v-3.98h8.73v-8.74h3.99C70.2,70.68,71.25,69.62,71.25,68.32z"/><path d="M92.49,65.97h-3.98V57.23h-8.74v-3.99c0-0.641-0.26-1.23-0.689-1.66c-0.43-0.42-1.01-0.69-1.66-0.69   c-1.3,0-2.36,1.061-2.36,2.36v3.98h-8.72v7.329h2.57c2.07,0,3.76,1.69,3.76,3.761c0,2.08-1.689,3.77-3.76,3.77h-2.57v7.33h7.311   v-2.57c0-2.08,1.689-3.77,3.76-3.77c2.08,0,3.77,1.689,3.77,3.77v2.57h7.33v-8.74h3.98c1.3,0,2.359-1.06,2.359-2.359   C94.85,67.02,93.79,65.97,92.49,65.97z"/><path d="M59.98,44.73c0,1.29,1.06,2.35,2.359,2.35h3.98v8.74h7.33v-2.57c0-2.08,1.689-3.77,3.77-3.77c1.03,0,1.97,0.43,2.66,1.11   c0.68,0.68,1.1,1.62,1.1,2.66v2.57h7.33v-7.33H85.94c-2.08,0-3.771-1.69-3.771-3.77c0-2.07,1.69-3.76,3.771-3.76h2.569v-7.33h-8.74   v-3.98c0-1.3-1.06-2.36-2.35-2.36c-1.3,0-2.36,1.06-2.36,2.36v3.98H66.32v8.74h-3.98C61.04,42.37,59.98,43.43,59.98,44.73z"/><path d="M38.74,47.08h3.98v8.74h7.33v-2.57c0-1.04,0.42-1.98,1.11-2.67c0.68-0.68,1.62-1.1,2.66-1.1h0.01   c2.08,0,3.77,1.69,3.77,3.77v2.57h7.311v-7.33h-2.57c-2.08,0-3.77-1.69-3.77-3.77c0-2.07,1.689-3.76,3.77-3.76h2.57v-7.33h-8.74   v-3.98c0-1.3-1.06-2.36-2.35-2.36c-1.301,0-2.36,1.06-2.36,2.36v3.98h-8.74v8.74h-3.98c-1.3,0-2.36,1.06-2.36,2.35   C36.38,46.02,37.44,47.08,38.74,47.08z"/></g></svg>